HIERARCHY
ROOT Hips
{
  OFFSET 0.0000 0.0000 0.0000
  CHANNELS 6 Xposition Yposition Zposition Zrotation Xrotation Yrotation
  JOINT LeftHip
  {
    OFFSET 5.5000 0.0000 -0.0000
    CHANNELS 3 Zrotation Xrotation Yrotation
    JOINT LeftKnee
    {
      OFFSET 0.0000 -17.5000 0.0000
      CHANNELS 3 Zrotation Xrotation Yrotation
      JOINT LeftAnkle
      {
        OFFSET 0.0000 -17.0000 -0.0000
        CHANNELS 3 Zrotation Xrotation Yrotation
        End Site
        {
            OFFSET 0.0000 -4.7000 -2.0000
        }
      }
    }
  }
  JOINT RightHip
  {
    OFFSET -5.5000 0.0000 0.0000
    CHANNELS 3 Zrotation Xrotation Yrotation
    JOINT RightKnee
    {
      OFFSET 0.0000 -17.5000 0.0000
      CHANNELS 3 Zrotation Xrotation Yrotation
      JOINT RightAnkle
      {
        OFFSET -0.0000 -17.0000 0.0000
        CHANNELS 3 Zrotation Xrotation Yrotation
        End Site
        {
            OFFSET 0.0000 -4.7000 -2.0000
        }
      }
    }
  }
  JOINT Chest
  {
    OFFSET -0.0000 3.0000 -1.0000
    CHANNELS 3 Zrotation Xrotation Yrotation
    JOINT LeftCollar
    {
      OFFSET -0.0000 18.0000 1.0000
      CHANNELS 3 Zrotation Xrotation Yrotation
      JOINT LeftShoulder
      {
        OFFSET 6.5000 0.0000 0.0000
        CHANNELS 3 Zrotation Xrotation Yrotation
        JOINT LeftElbow
        {
          OFFSET 0.0000 -11.0000 0.0000
          CHANNELS 3 Zrotation Xrotation Yrotation
          JOINT LeftWrist
          {
            OFFSET 0.0000 -10.5000 -0.0000
            CHANNELS 3 Zrotation Xrotation Yrotation
            End Site
            {
                OFFSET -0.0000 -6.0000 -0.0000
            }
          }
        }
      }
    }
    JOINT RightCollar
    {
      OFFSET -0.0000 18.0000 1.0000
      CHANNELS 3 Zrotation Xrotation Yrotation
      JOINT RightShoulder
      {
        OFFSET -6.5000 -0.0000 0.0000
        CHANNELS 3 Zrotation Xrotation Yrotation
        JOINT RightElbow
        {
          OFFSET 0.0000 -11.0000 0.0000
          CHANNELS 3 Zrotation Xrotation Yrotation
          JOINT RightWrist
          {
            OFFSET 0.0000 -10.5000 0.0000
            CHANNELS 3 Zrotation Xrotation Yrotation
            End Site
            {
                OFFSET 0.0000 -6.0000 0.0000
            }
          }
        }
      }
    }
    JOINT Neck
    {
      OFFSET -0.0000 18.0000 1.0000
      CHANNELS 3 Zrotation Xrotation Yrotation
      JOINT Head
      {
        OFFSET -0.0000 3.0000 0.0000
        CHANNELS 3 Zrotation Xrotation Yrotation
        End Site
        {
            OFFSET 0.0000 7.0000 0.0000
        }
      }
    }
  }
}
MOTION
Frames:	35
Frame Time:	0.033333
-6.0868 38.4005 -0.3809 4.79 -9.53 22.26 5.61 -8.12 -6.92 0.00 28.45 -10.98 -5.95 -8.86 -5.91 6.16 -1.08 -20.86 0.00 27.35 14.42 -15.22 -10.89 -22.00 2.42 14.43 -5.85 0.00 0.00 0.00 17.92 -11.86 32.20 0.00 -67.77 8.92 -26.36 33.73 18.18 0.00 0.00 0.00 -88.14 0.52 -64.70 0.00 -41.48 -9.06 -78.16 -51.95 -20.45 0.00 0.00 0.00 23.80 12.83 -27.28 
-5.6617 38.5635 -0.8083 4.36 -8.42 20.21 4.14 -8.30 -8.55 -0.00 26.83 -9.35 -5.76 -8.08 -3.46 4.53 -2.41 -22.00 0.00 27.11 15.40 -14.68 -10.42 -19.21 2.60 14.48 -6.59 0.00 0.00 0.00 21.20 -15.25 36.67 -0.00 -67.38 8.95 -26.24 32.89 18.61 0.00 0.00 0.00 -82.16 -2.25 -65.50 0.00 -37.20 -9.75 -74.70 -51.82 -24.10 0.00 0.00 0.00 18.91 11.17 -16.38 
-5.1853 38.6946 -1.2344 4.01 -7.46 18.39 2.92 -8.65 -9.17 0.00 25.60 -7.07 -5.43 -7.18 -2.92 3.12 -3.82 -22.22 0.00 27.13 16.71 -14.13 -9.76 -17.96 2.45 14.26 -6.32 0.00 0.00 0.00 24.20 -17.78 41.34 -0.00 -65.78 8.84 -26.86 31.39 17.58 0.00 0.00 0.00 -76.06 -5.02 -65.14 0.00 -33.10 -9.40 -70.38 -51.81 -25.12 0.00 0.00 0.00 13.73 8.90 -4.91 
-4.7793 38.7741 -1.7082 3.75 -6.72 16.96 2.10 -9.28 -8.71 0.00 24.84 -4.31 -5.08 -6.13 -4.38 2.11 -5.40 -21.45 0.00 27.43 18.35 -13.69 -8.84 -18.51 2.02 13.77 -4.96 0.00 0.00 0.00 27.10 -19.77 44.90 -0.00 -63.49 7.79 -28.71 29.21 17.00 0.00 0.00 0.00 -69.76 -7.16 -63.00 0.00 -28.74 -7.71 -67.26 -50.41 -25.35 0.00 0.00 0.00 8.92 6.20 6.58 
-4.5462 38.8174 -2.0193 3.61 -6.22 16.01 1.79 -9.78 -7.51 0.00 24.32 -1.80 -4.83 -5.30 -6.92 1.42 -6.82 -19.89 0.00 28.00 19.95 -14.64 -8.11 -19.93 1.50 13.08 -2.77 0.00 0.00 0.00 29.54 -21.32 46.56 -0.00 -60.40 5.98 -31.15 25.91 16.79 0.00 0.00 0.00 -63.46 -8.04 -59.67 -0.00 -24.32 -5.44 -65.13 -47.65 -25.34 0.00 0.00 0.00 5.20 3.25 16.86 
-4.5178 38.8064 -2.6188 3.57 -5.94 15.59 1.76 -10.77 -5.89 -0.00 23.91 0.17 -4.62 -3.90 -9.86 0.80 -8.89 -17.77 0.00 29.07 21.10 -16.78 -6.90 -21.28 0.97 12.23 -0.03 0.00 0.00 0.00 31.04 -22.37 46.30 -0.00 -56.71 3.88 -33.55 21.59 16.06 0.00 0.00 0.00 -57.31 -7.54 -56.03 -0.00 -19.88 -3.43 -63.30 -44.27 -25.24 0.00 0.00 0.00 2.37 0.15 25.92 
-4.4112 38.7622 -3.5595 3.62 -5.85 15.86 1.57 -12.18 -3.55 -0.00 23.38 1.93 -3.78 -1.77 -13.88 0.22 -11.55 -13.52 -0.00 30.37 22.10 -18.81 -4.50 -23.99 0.33 11.41 3.52 0.00 0.00 0.00 31.22 -22.11 44.71 -0.00 -52.03 1.62 -36.77 15.49 13.39 0.00 0.00 0.00 -51.63 -6.19 -52.03 -0.00 -15.66 -1.76 -61.86 -39.31 -24.80 0.00 0.00 0.00 -0.02 -2.88 34.75 
-5.0768 38.6329 -4.2723 3.72 -5.81 16.93 2.78 -13.56 -0.52 0.00 22.64 3.69 -3.71 0.63 -19.57 1.55 -13.91 -6.97 -0.00 31.28 21.97 -21.07 -0.62 -27.43 -0.45 10.82 7.80 0.00 0.00 0.00 30.84 -20.69 42.29 0.00 -47.13 -0.67 -41.00 8.72 8.88 0.00 0.00 0.00 -46.34 -4.16 -47.45 -0.00 -11.82 0.01 -60.82 -31.99 -25.05 0.00 0.00 0.00 -1.77 -5.71 42.92 
-5.9340 38.4769 -4.5627 3.91 -5.74 18.85 4.44 -14.60 3.27 0.00 21.99 5.48 -3.48 2.70 -26.86 3.73 -15.53 1.01 -0.00 32.44 20.27 -22.20 3.60 -30.43 -1.30 10.46 12.60 0.00 0.00 0.00 30.18 -18.67 39.43 0.00 -42.14 -2.63 -45.77 2.66 2.11 0.00 0.00 0.00 -41.63 -1.59 -43.15 -0.00 -8.85 1.34 -58.74 -23.56 -25.37 0.00 0.00 0.00 -2.83 -8.46 49.74 
-6.1284 38.4540 -4.4312 4.12 -5.56 21.45 5.04 -14.80 7.03 0.00 21.31 6.70 -2.17 3.68 -34.17 5.03 -15.61 8.69 -0.00 33.35 16.89 -21.36 6.53 -31.70 -2.05 10.34 17.30 0.00 0.00 0.00 29.44 -16.66 36.02 0.00 -37.32 -4.02 -49.91 -1.70 -6.15 0.00 0.00 0.00 -37.55 1.74 -40.08 -0.00 -7.03 1.93 -54.97 -16.12 -25.80 0.00 0.00 0.00 -3.16 -10.81 54.31 
-6.3808 38.4460 -4.1543 4.31 -5.30 24.53 5.61 -14.90 10.34 0.00 20.45 7.19 -0.98 4.53 -40.84 6.20 -15.13 14.65 0.00 34.04 11.68 -20.12 8.53 -30.07 -2.67 10.35 21.47 0.00 0.00 0.00 28.76 -14.81 32.29 0.00 -32.69 -4.79 -52.76 -4.25 -15.02 0.00 0.00 0.00 -34.07 5.39 -38.44 -0.00 -6.41 2.01 -49.80 -10.40 -25.91 0.00 0.00 0.00 -2.95 -12.86 56.67 
-6.5833 38.4460 -3.8850 4.43 -4.97 28.03 5.94 -15.10 13.36 -0.00 19.47 7.10 0.37 5.37 -47.09 7.14 -14.44 19.31 0.00 34.57 6.52 -18.25 10.11 -27.86 -3.21 10.43 25.42 0.00 0.00 0.00 28.14 -12.29 29.78 0.00 -27.47 -4.51 -55.41 -4.84 -26.27 0.00 0.00 0.00 -31.80 8.24 -36.95 0.00 -7.35 2.17 -44.14 -3.94 -25.35 0.00 0.00 0.00 -2.22 -14.76 58.65 
-7.0876 38.4110 -3.7624 4.46 -4.64 31.81 6.41 -15.47 16.38 -0.00 17.63 7.47 1.88 7.11 -54.14 8.42 -14.10 23.08 -0.00 34.88 2.35 -16.00 12.08 -26.30 -3.56 10.48 28.80 0.00 0.00 0.00 27.21 -9.55 28.62 0.00 -22.25 -2.71 -56.55 -2.63 -38.79 0.00 0.00 0.00 -30.65 10.18 -36.32 0.00 -9.39 2.04 -38.52 1.92 -23.42 0.00 0.00 0.00 -1.75 -16.77 59.50 
-7.6810 38.3421 -3.6866 4.39 -4.38 35.79 6.85 -16.11 19.59 0.00 15.82 8.10 3.77 8.86 -61.90 9.60 -13.90 25.83 0.00 35.23 -1.10 -13.56 13.44 -25.11 -3.66 10.45 31.52 0.00 0.00 0.00 25.95 -6.35 28.71 -0.00 -17.08 0.00 -55.74 0.89 -51.81 0.00 0.00 0.00 -30.65 11.40 -36.39 0.00 -12.03 1.73 -33.39 7.25 -20.32 0.00 0.00 0.00 -1.83 -18.51 59.46 
-7.7240 38.3159 -3.6058 4.36 -4.08 39.88 6.46 -16.90 22.52 0.00 15.40 8.56 6.04 8.88 -69.26 9.57 -13.01 27.45 0.00 35.33 -3.90 -10.82 13.19 -24.11 -3.59 10.46 33.55 0.00 0.00 0.00 24.78 -2.96 29.38 -0.00 -12.66 2.55 -53.33 3.93 -63.43 0.00 0.00 0.00 -31.33 12.26 -37.00 0.00 -14.82 1.31 -29.12 11.64 -16.65 0.00 0.00 0.00 -2.34 -19.78 58.55 
-7.7435 38.2897 -3.4388 4.31 -3.78 44.09 6.11 -17.74 25.29 0.00 15.46 8.92 8.11 8.33 -76.41 9.55 -11.97 28.20 -0.00 35.26 -5.92 -8.57 12.25 -23.42 -3.36 10.46 35.13 0.00 0.00 0.00 23.82 0.62 30.85 -0.00 -9.05 4.80 -50.07 6.26 -73.85 0.00 0.00 0.00 -32.67 12.47 -37.63 -0.00 -17.86 0.91 -25.94 16.14 -12.64 0.00 0.00 0.00 -2.89 -20.89 57.57 
-7.7631 38.2327 -3.4477 4.27 -3.53 48.43 5.48 -18.73 28.01 0.00 15.58 9.32 10.42 7.53 -83.61 9.44 -11.38 28.53 0.00 35.35 -6.88 -6.27 10.95 -23.41 -3.09 10.35 36.60 0.00 0.00 0.00 22.88 4.48 33.30 -0.00 -6.14 6.69 -46.26 7.82 -83.68 0.00 0.00 0.00 -34.89 11.85 -37.80 -0.00 -21.20 0.71 -23.74 21.60 -8.71 0.00 0.00 0.00 -3.32 -21.71 57.04 
-7.9085 38.2431 -3.6029 4.31 -3.17 52.92 4.86 -19.38 30.64 0.00 16.15 9.61 12.07 5.94 -89.19 8.93 -10.97 28.89 -0.00 35.12 -6.66 -3.70 9.54 -24.50 -3.04 10.24 38.12 0.00 0.00 0.00 22.08 8.64 36.44 -0.00 -4.00 8.14 -42.59 8.31 -92.66 0.00 0.00 0.00 -37.38 10.75 -37.54 0.00 -24.34 0.57 -22.46 27.06 -5.38 0.00 0.00 0.00 -3.53 -21.94 56.83 
-8.0098 38.4104 -3.8125 4.47 -2.50 57.63 4.48 -19.16 33.26 -0.00 17.97 9.74 12.24 2.78 -92.31 7.96 -10.16 29.28 -0.00 33.76 -5.56 -1.30 8.26 -26.65 -3.38 10.19 39.70 0.00 0.00 0.00 21.27 12.78 39.76 -0.00 -2.78 9.00 -39.48 7.74 -100.06 0.00 0.00 0.00 -39.80 9.53 -37.22 0.00 -27.06 0.30 -22.02 31.75 -2.30 0.00 0.00 0.00 -3.61 -21.75 56.35 
-8.0552 38.6864 -4.0332 4.66 -1.57 62.44 4.93 -17.91 35.78 0.00 21.35 9.62 10.56 -1.81 -92.55 6.59 -8.90 29.48 0.00 31.52 -4.14 0.64 6.85 -29.11 -3.99 10.15 41.08 0.00 0.00 0.00 20.36 16.31 42.52 0.00 -2.49 9.17 -36.75 6.32 -104.79 0.00 0.00 0.00 -41.96 8.62 -37.47 -0.00 -29.15 -0.22 -22.08 34.79 1.21 0.00 0.00 0.00 -3.95 -21.29 54.79 
-7.9720 38.9299 -4.2458 4.69 -0.61 67.44 6.62 -15.70 38.78 0.00 25.81 9.96 7.36 -7.35 -91.70 5.29 -7.60 29.65 0.00 29.59 -2.50 2.23 4.64 -31.96 -4.75 10.09 42.64 0.00 0.00 0.00 19.07 19.34 45.38 0.00 -2.87 9.00 -34.39 4.55 -108.44 0.00 0.00 0.00 -43.71 7.44 -37.42 -0.00 -30.80 -0.70 -22.92 37.38 4.35 0.00 0.00 0.00 -4.24 -20.29 53.00 
-7.7515 39.0525 -4.5896 4.44 0.15 72.67 9.03 -12.57 41.98 -0.00 29.76 10.62 3.23 -12.48 -90.21 4.16 -6.59 29.80 0.00 28.57 -0.84 3.59 1.32 -34.90 -5.45 10.06 44.21 0.00 0.00 0.00 17.52 21.57 47.84 0.00 -3.73 8.46 -32.27 2.55 -110.60 0.00 0.00 0.00 -44.91 6.16 -37.16 -0.00 -31.98 -1.07 -24.10 39.26 7.06 0.00 0.00 0.00 -4.55 -18.83 50.41 
-7.3948 39.0554 -5.1320 4.01 0.64 77.98 11.17 -8.81 44.54 -0.00 31.55 10.76 -0.85 -15.74 -86.79 3.11 -5.80 29.54 0.00 28.47 0.50 4.44 -3.03 -37.13 -5.89 10.02 45.22 0.00 0.00 0.00 16.33 22.79 48.93 -0.00 -4.91 7.55 -30.15 0.75 -110.09 0.00 0.00 0.00 -45.49 5.43 -37.31 -0.00 -32.57 -1.32 -24.68 39.29 9.62 0.00 0.00 0.00 -5.06 -17.27 46.37 
-6.9506 38.9596 -5.9024 3.49 0.95 83.39 12.62 -5.40 46.71 0.00 31.59 10.53 -3.89 -17.26 -81.85 2.18 -5.08 29.15 0.00 29.15 1.83 4.71 -8.14 -39.41 -6.17 9.92 45.87 0.00 0.00 0.00 15.15 23.25 49.53 0.00 -6.06 6.68 -27.80 -0.60 -108.75 0.00 0.00 0.00 -45.54 4.55 -37.20 -0.00 -33.05 -1.34 -25.27 38.90 12.08 0.00 0.00 0.00 -5.44 -15.68 41.75 
-6.9899 38.8565 -6.9924 3.08 1.23 89.00 13.18 -3.36 48.99 0.00 30.16 10.11 -4.82 -16.95 -76.33 1.27 -5.03 29.40 0.00 30.43 3.49 4.72 -12.92 -42.98 -6.17 9.52 46.52 0.00 0.00 0.00 13.31 22.89 49.88 0.00 -6.86 5.40 -24.42 -1.88 -107.31 0.00 0.00 0.00 -45.34 2.92 -36.46 0.00 -33.73 -1.18 -26.97 39.29 15.39 0.00 0.00 0.00 -5.87 -14.25 36.93 
-7.0186 38.8075 -8.3962 2.83 1.52 94.81 12.72 -2.21 50.87 0.00 28.69 9.00 -4.27 -16.70 -70.20 0.15 -5.29 30.10 -0.00 32.62 4.74 4.45 -17.92 -46.81 -5.94 8.89 47.05 0.00 0.00 0.00 11.41 21.92 48.73 0.00 -7.58 3.14 -20.21 -3.01 -104.18 0.00 0.00 0.00 -44.93 1.67 -35.36 0.00 -34.07 -0.87 -28.36 39.29 18.59 0.00 0.00 0.00 -6.24 -12.23 31.21 
-7.0646 38.7920 -9.8495 2.74 1.86 100.68 11.61 -1.75 51.97 -0.00 27.70 7.12 -2.81 -16.91 -63.67 -0.72 -6.42 30.60 -0.00 36.41 5.33 3.81 -22.78 -49.92 -5.56 8.17 47.12 0.00 0.00 0.00 10.33 20.81 45.73 -0.00 -8.45 0.42 -16.00 -3.00 -99.03 0.00 0.00 0.00 -43.81 1.16 -33.99 0.00 -34.06 -0.44 -28.91 38.09 21.28 0.00 0.00 0.00 -6.01 -9.74 24.68 
-7.2700 38.7756 -10.5820 2.74 2.30 106.49 11.12 -2.14 52.36 -0.00 27.22 4.97 -1.08 -16.43 -57.65 0.42 -9.92 30.77 -0.00 43.58 5.13 2.12 -26.72 -52.25 -5.08 7.51 46.68 0.00 0.00 0.00 10.02 19.75 41.36 0.00 -9.29 -2.33 -12.45 -1.73 -92.86 0.00 0.00 0.00 -41.92 1.13 -32.08 -0.00 -34.01 0.13 -28.93 36.16 23.42 0.00 0.00 0.00 -5.06 -6.97 17.61 
-7.7581 38.7142 -11.5619 2.82 2.91 112.55 9.92 -3.06 52.76 -0.00 27.79 2.93 1.32 -17.12 -53.24 3.20 -15.08 32.64 -0.00 54.79 3.46 0.79 -31.05 -54.57 -4.89 6.66 47.07 0.00 0.00 0.00 8.77 18.53 37.94 0.00 -10.30 -4.87 -8.79 -0.11 -89.57 0.00 0.00 0.00 -39.64 -0.70 -27.11 0.00 -34.80 1.32 -30.51 38.19 24.58 0.00 0.00 0.00 -3.76 -4.47 11.55 
-7.6819 38.6435 -11.7134 2.95 3.52 118.66 10.10 -3.68 52.08 0.00 28.46 0.52 2.61 -16.93 -49.25 8.41 -20.12 34.54 0.00 65.21 1.23 -1.82 -32.32 -57.24 -4.71 5.94 47.02 0.00 0.00 0.00 8.58 17.36 32.90 -0.00 -11.65 -7.27 -6.52 2.56 -85.24 0.00 0.00 0.00 -36.54 -1.96 -22.36 -0.00 -35.56 1.87 -31.67 38.76 26.48 0.00 0.00 0.00 -1.94 -2.22 4.25 
-7.3627 38.6198 -12.3838 3.08 4.12 124.85 9.49 -3.39 50.83 0.00 28.73 -1.47 3.53 -17.54 -46.33 12.46 -22.54 36.12 0.00 68.91 -0.71 -4.04 -28.97 -60.14 -4.49 5.39 46.87 0.00 0.00 0.00 9.01 16.13 27.84 -0.00 -13.25 -8.89 -5.59 5.84 -82.31 0.00 0.00 0.00 -32.76 -3.73 -16.84 -0.00 -36.75 2.46 -33.56 39.94 28.99 0.00 0.00 0.00 0.11 -0.64 -2.77 
-7.1500 38.5830 -12.8615 3.14 4.76 131.11 9.09 -3.42 49.30 0.00 29.13 -2.77 4.44 -17.86 -44.48 15.23 -23.40 37.49 0.00 66.22 -2.41 -5.22 -20.86 -62.39 -4.24 5.04 46.62 0.00 0.00 0.00 9.94 14.32 22.81 -0.00 -15.55 -9.86 -5.86 10.07 -80.40 0.00 0.00 0.00 -28.51 -6.16 -10.94 0.00 -38.11 3.08 -36.38 41.48 32.54 0.00 0.00 0.00 2.25 0.24 -9.59 
-6.6567 38.5853 -13.5273 3.09 5.40 137.29 8.62 -2.72 47.25 -0.00 28.97 -3.64 4.73 -18.17 -43.28 16.23 -22.45 38.04 0.00 58.77 -4.95 -5.87 -10.51 -62.87 -3.94 4.94 45.99 0.00 0.00 0.00 11.21 12.14 17.59 -0.00 -18.15 -10.35 -7.27 14.31 -78.42 0.00 0.00 0.00 -24.24 -8.55 -5.65 0.00 -39.01 3.48 -38.98 41.79 36.77 0.00 0.00 0.00 4.53 0.48 -16.36 
-6.2205 38.5691 -13.9493 2.88 6.00 143.24 8.47 -2.62 44.66 -0.00 29.07 -4.49 5.13 -18.06 -41.74 15.34 -20.70 37.75 0.00 50.43 -8.75 -6.32 -1.27 -61.08 -3.64 5.13 44.73 0.00 0.00 0.00 12.28 9.78 12.30 -0.00 -20.50 -10.22 -9.26 17.78 -75.94 0.00 0.00 0.00 -20.58 -10.50 -1.56 0.00 -39.23 3.70 -40.00 40.37 40.79 0.00 0.00 0.00 6.58 0.20 -22.99 
-5.5401 38.3903 -14.4347 2.28 6.58 148.92 8.70 -2.78 41.70 0.00 30.24 -5.18 5.01 -18.55 -40.30 13.39 -18.30 37.14 -0.00 38.35 -12.91 -8.29 10.30 -58.03 -3.49 5.63 43.29 0.00 0.00 0.00 13.00 7.28 8.14 -0.00 -22.96 -9.25 -11.67 20.80 -74.27 0.00 0.00 0.00 -17.36 -12.58 2.34 0.00 -39.29 3.91 -40.65 38.74 44.62 0.00 0.00 0.00 8.38 -0.46 -28.52 
